<?xml version="1.0" encoding="utf-8"?>
<!-- Generator: Adobe Illustrator 23.0.6, SVG Export Plug-In . SVG Version: 6.00 Build 0)  -->
<svg version="1.1" id="Layer_1" xmlns="http://www.w3.org/2000/svg" xmlns:xlink="http://www.w3.org/1999/xlink" x="0px" y="0px"
	 viewBox="0 0 448.6 446.5" style="enable-background:new 0 0 448.6 446.5;" xml:space="preserve">
<style type="text/css">
	.st0{fill:#FFFFFF;}
	.st1{display:none;fill:url(#SVGID_1_);}
</style>
<g>
	<path class="st0" d="M216.1,48.9c42.5,0,64.1,8.5,73.7,27.8l39-25.4h38.4C328.3,19.3,278.6,0,224.3,0C168.7,0,117.9,20.2,78.7,53.7
		c12.6-3.4,28.4-4.9,47.8-4.9L216.1,48.9L216.1,48.9z"/>
	<path class="st0" d="M252.5,343.9h-71.6c-10.4,0-17.7,4.6-19.9,14.7h-58.7v-85.2h-63v-75.5c0-27.3,17.8-45.4,61.6-48.4l77.9-4.9
		c49.7-3.1,53.1-4,53.1-25.8c0-18.1-1.8-22.1-45.4-22.1h-45.1c-28.8,0-37.7,4.3-37.7,27.3v9.5H39.4v-26.1c0-3.9,0.2-7.5,0.6-10.9
		C14.8,132.8,0,176.8,0,224.3c0,76.5,38.3,144,96.7,184.5c-1.1-5.3-1.7-11.3-1.7-18.1v-12.8h62.4c0,18.7,5.2,23.8,36.4,23.8h63.6
		c31.2,0,34.5-8.6,34.5-30C291.9,346.6,283.7,343.9,252.5,343.9z"/>
	<path class="st0" d="M410,98.4v175h-62.5V104.6l-51.8,33.2c-3.7,44.5-21.9,53.3-90.6,57l-70.3,3.7c-28.5,1.5-32.8,7.1-32.8,27h0.4
		v0h219.1v47.8h-21.9H161.1v38.4c8.6-8.6,17.7-13.8,42.2-13.8H280c47.1,0,74.3,15.3,74.3,64.2v14.1c0,13.6-1.4,24.8-4.3,33.8
		c55.2-37.4,92.8-98.7,98-169.1c0.4-5.5,0.6-11.1,0.6-16.7C448.6,177.6,434.4,134.3,410,98.4z"/>
</g>
<g>

		<radialGradient id="SVGID_1_" cx="234.3227" cy="141.9483" r="184.9537" gradientTransform="matrix(1 0 0 -1 0 278.98)" gradientUnits="userSpaceOnUse">
		<stop  offset="0" style="stop-color:#06357A"/>
		<stop  offset="0.5837" style="stop-color:#06357A"/>
		<stop  offset="0.6798" style="stop-color:#06357A"/>
		<stop  offset="0.7241" style="stop-color:#0C377C"/>
		<stop  offset="0.7722" style="stop-color:#1C3D80"/>
		<stop  offset="0.8222" style="stop-color:#2F4888"/>
		<stop  offset="0.8733" style="stop-color:#485994"/>
		<stop  offset="0.9254" style="stop-color:#6571A5"/>
		<stop  offset="0.9776" style="stop-color:#8C93BE"/>
		<stop  offset="1" style="stop-color:#A1A7CA"/>
	</radialGradient>
	<path class="st1" d="M279.3,186.5c-32.5,23.4-67.4,38-100,43.5c16.9,7.2,35.5,11.3,55,11.3c77.1,0,139.5-62.5,139.5-139.5
		c0-13.6-2-26.7-5.6-39.1C359.3,105.3,327.8,151.6,279.3,186.5z"/>
</g>
</svg>
